<svg xmlns="http://www.w3.org/2000/svg" width="49" height="48" fill="none" viewBox="0 0 49 48"><path fill="#4141e7" d="M35.56 15.54q-.21-.03-.42 0c-3.1-.1-5.56-2.64-5.56-5.76C29.58 6.6 32.16 4 35.36 4c3.18 0 5.78 2.58 5.78 5.78-.02 3.12-2.48 5.66-5.58 5.76M42.08 29.4c-2.24 1.5-5.38 2.06-8.28 1.68.76-1.64 1.16-3.46 1.18-5.38 0-2-.44-3.9-1.28-5.56 2.96-.4 6.1.16 8.36 1.66 3.16 2.08 3.16 5.5.02 7.6M13.38 15.54q.21-.03.42 0c3.1-.1 5.56-2.64 5.56-5.76C19.36 6.6 16.78 4 13.58 4 10.4 4 7.8 6.58 7.8 9.78c.02 3.12 2.48 5.66 5.58 5.76M13.6 25.7c0 1.94.42 3.78 1.18 5.44-2.82.3-5.76-.3-7.92-1.72-3.16-2.1-3.16-5.52 0-7.62 2.14-1.44 5.16-2.02 8-1.7-.82 1.68-1.26 3.58-1.26 5.6" opacity=".4"/><path fill="#4141e7" d="M24.74 31.74c-.16-.02-.34-.02-.52 0-3.68-.12-6.62-3.14-6.62-6.86 0-3.8 3.06-6.88 6.88-6.88 3.8 0 6.88 3.08 6.88 6.88 0 3.72-2.92 6.74-6.62 6.86M18.24 35.88c-3.02 2.02-3.02 5.34 0 7.34 3.44 2.3 9.08 2.3 12.52 0 3.02-2.02 3.02-5.34 0-7.34-3.42-2.3-9.06-2.3-12.52 0"/></svg>