<svg xmlns="http://www.w3.org/2000/svg" width="49" height="48" fill="none" viewBox="0 0 49 48"><path fill="#4141e7" d="M18.26 9.2c-1.6-6.92-12.02-6.94-13.62 0-.94 4.06 1.64 7.5 3.88 9.64a4.294 4.294 0 0 0 5.86 0c2.24-2.14 4.8-5.58 3.88-9.64m-6.74 3.2c-1.1 0-2-.9-2-2s.88-2 1.98-2h.02c1.12 0 2 .9 2 2s-.88 2-2 2" opacity=".4"/><path fill="#4141e7" d="M13.52 10.4c0 1.1-.88 2-2 2-1.1 0-2-.9-2-2s.88-2 1.98-2h.02c1.12 0 2 .9 2 2"/><path fill="#4141e7" d="M44.32 33.2c-1.6-6.92-12.06-6.94-13.68 0-.94 4.06 1.64 7.5 3.9 9.64 1.64 1.54 4.24 1.54 5.88 0 2.26-2.14 4.84-5.58 3.9-9.64m-6.76 3.2c-1.1 0-2-.9-2-2s.88-2 1.98-2h.02c1.1 0 2 .9 2 2s-.9 2-2 2" opacity=".4"/><path fill="#4141e7" d="M39.56 34.4c0 1.1-.9 2-2 2s-2-.9-2-2 .88-2 1.98-2h.02c1.1 0 2 .9 2 2M24.5 39.5h-5.36c-2.32 0-4.34-1.4-5.14-3.56-.82-2.16-.22-4.54 1.52-6.08L31.5 15.88c.96-.84.98-1.98.7-2.76-.3-.78-1.06-1.62-2.34-1.62H24.5c-.82 0-1.5-.68-1.5-1.5s.68-1.5 1.5-1.5h5.36c2.32 0 4.34 1.4 5.14 3.56.82 2.16.22 4.54-1.52 6.08L17.5 32.12c-.96.84-.98 1.98-.7 2.76.3.78 1.06 1.62 2.34 1.62h5.36c.82 0 1.5.68 1.5 1.5s-.68 1.5-1.5 1.5"/></svg>