<svg xmlns="http://www.w3.org/2000/svg" width="149" height="28" fill="none" viewBox="0 0 149 28"><path fill="#ffe144" d="M13.577 2.22c.341-.821 1.505-.821 1.846 0l2.545 6.12a1 1 0 0 0 .844.612l6.606.53c.887.07 1.246 1.177.57 1.756l-5.032 4.311a1 1 0 0 0-.323.992l1.538 6.447c.207.865-.735 1.549-1.494 1.085l-5.656-3.455a1 1 0 0 0-1.042 0l-5.656 3.455c-.76.464-1.7-.22-1.494-1.085l1.538-6.447a1 1 0 0 0-.323-.992l-5.033-4.311c-.675-.579-.316-1.685.57-1.756l6.607-.53a1 1 0 0 0 .843-.613zM43.577 2.22c.341-.821 1.505-.821 1.846 0l2.545 6.12a1 1 0 0 0 .844.612l6.606.53c.887.07 1.246 1.177.57 1.756l-5.032 4.311a1 1 0 0 0-.323.992l1.538 6.447c.206.865-.735 1.549-1.494 1.085l-5.656-3.455a1 1 0 0 0-1.042 0l-5.656 3.455c-.76.464-1.7-.22-1.494-1.085l1.538-6.447a1 1 0 0 0-.322-.992l-5.034-4.311c-.675-.579-.316-1.685.57-1.756l6.607-.53a1 1 0 0 0 .843-.613zM73.577 2.22c.341-.821 1.505-.821 1.846 0l2.546 6.12a1 1 0 0 0 .843.612l6.606.53c.887.07 1.246 1.177.57 1.756l-5.032 4.311a1 1 0 0 0-.323.992l1.538 6.447c.206.865-.735 1.549-1.494 1.085l-5.656-3.455a1 1 0 0 0-1.042 0l-5.656 3.455c-.76.464-1.7-.22-1.494-1.085l1.538-6.447a1 1 0 0 0-.323-.992l-5.033-4.311c-.675-.579-.316-1.685.57-1.756l6.607-.53a1 1 0 0 0 .843-.613zM103.577 2.22c.341-.821 1.505-.821 1.846 0l2.545 6.12a1 1 0 0 0 .844.612l6.606.53c.887.07 1.246 1.177.571 1.756l-5.033 4.311a1 1 0 0 0-.323.992l1.538 6.447c.207.865-.735 1.549-1.494 1.085l-5.656-3.455a1 1 0 0 0-1.042 0l-5.656 3.455c-.76.464-1.7-.22-1.494-1.085l1.538-6.447a1 1 0 0 0-.323-.992l-5.033-4.311c-.675-.579-.316-1.685.57-1.756l6.607-.53a1 1 0 0 0 .844-.613zM133.577 2.22c.341-.821 1.505-.821 1.846 0l2.545 6.12a1 1 0 0 0 .844.612l6.606.53c.887.07 1.246 1.177.571 1.756l-5.033 4.311a1 1 0 0 0-.323.992l1.538 6.447c.207.865-.735 1.549-1.494 1.085l-5.656-3.455a1 1 0 0 0-1.042 0l-5.656 3.455c-.759.464-1.701-.22-1.494-1.085l1.538-6.447a1 1 0 0 0-.323-.992l-5.033-4.311c-.675-.579-.316-1.685.571-1.756l6.606-.53a1 1 0 0 0 .844-.613z"/></svg>