<svg xmlns="http://www.w3.org/2000/svg" width="62" height="62" fill="none" viewBox="0 0 62 62"><g clip-path="url(#a)"><path fill="#fff" stroke="#d0d5dd" stroke-width="2.31" d="M13.858 1.155h26.247L52.738 12.76v42.673a5.005 5.005 0 0 1-5.005 5.004H13.858a5.004 5.004 0 0 1-5.004-5.004V6.159a5.004 5.004 0 0 1 5.004-5.004Z"/><mask id="b" fill="#fff"><path d="M38.494 1.54h13.088v13.088H40.034c-.85 0-1.54-.69-1.54-1.54z"/></mask><path fill="#d0d5dd" d="M38.494 1.54h13.088zm13.088 14.628H40.034a3.08 3.08 0 0 1-3.08-3.08h14.628zm-11.548 0a3.08 3.08 0 0 1-3.08-3.08V1.54h3.08v14.628M51.582 1.54v13.088z" mask="url(#b)"/><rect width="36.159" height="20.239" x="1.539" y="30.796" fill="#1b1b96" rx="3.08"/><path fill="#fff" d="M13.749 35.606v2.11h-2.864v8.699H8.252v-8.7H5.388v-2.11zm7.942 10.809-2.201-3.31-1.94 3.31h-2.988l3.465-5.497-3.542-5.312h3.064l2.171 3.264 1.91-3.264h2.987l-3.434 5.45 3.573 5.359zm12.162-10.81v2.11H30.99v8.7h-2.633v-8.7h-2.864v-2.11z"/></g><defs><clipPath id="a"><path fill="#fff" d="M0 0h61.592v61.592H0z"/></clipPath></defs></svg>