<svg xmlns="http://www.w3.org/2000/svg" width="63" height="62" fill="none" viewBox="0 0 63 62"><g clip-path="url(#a)"><path fill="#fff" stroke="#d0d5dd" stroke-width="2.31" d="M14.45 1.155h26.246L53.33 12.76v42.673a5.005 5.005 0 0 1-5.005 5.004H14.45a5.004 5.004 0 0 1-5.004-5.004V6.159a5.004 5.004 0 0 1 5.004-5.004Z"/><mask id="b" fill="#fff"><path d="M39.086 1.54h13.088v13.088H40.626c-.85 0-1.54-.69-1.54-1.54z"/></mask><path fill="#d0d5dd" d="M39.086 1.54h13.088zm13.088 14.628H40.626a3.08 3.08 0 0 1-3.08-3.08h14.628zm-11.548 0a3.08 3.08 0 0 1-3.08-3.08V1.54h3.08v14.628M52.174 1.54v13.088z" mask="url(#b)"/><rect width="45.159" height="20.239" x="2.131" y="30.796" fill="#1b1b96" rx="3.08"/><path fill="#fff" d="m12.874 46.415-2.202-3.31-1.94 3.31H5.745l3.464-5.497-3.541-5.312h3.064l2.171 3.264 1.91-3.264h2.986l-3.433 5.45 3.572 5.359zm7.019-2.032h3.45v2.032H17.26v-10.81h2.633zm8.616 2.14q-1.185 0-2.125-.385a3.5 3.5 0 0 1-1.509-1.14q-.554-.754-.585-1.816h2.802q.063.6.416.923.354.309.924.308.585 0 .924-.261.339-.278.339-.755a.87.87 0 0 0-.277-.662 2.1 2.1 0 0 0-.663-.431 10 10 0 0 0-1.108-.385q-1.047-.324-1.71-.647a3.16 3.16 0 0 1-1.139-.954q-.477-.631-.477-1.648 0-1.509 1.093-2.356 1.093-.862 2.849-.862 1.785 0 2.88.862 1.092.847 1.17 2.371h-2.85q-.03-.523-.384-.816-.355-.308-.909-.308-.477 0-.77.262-.292.246-.292.724 0 .523.493.816.492.292 1.54.631 1.046.354 1.693.678.662.322 1.14.939.477.616.477 1.586 0 .924-.477 1.678-.462.755-1.355 1.201-.894.447-2.11.447m12.183-.108-2.202-3.31-1.94 3.31h-2.987l3.465-5.497-3.542-5.312h3.064l2.172 3.264 1.909-3.264h2.987l-3.434 5.45 3.573 5.359z"/></g><defs><clipPath id="a"><path fill="#fff" d="M.592 0h61.592v61.592H.592z"/></clipPath></defs></svg>