<svg xmlns="http://www.w3.org/2000/svg" width="66" height="66" fill="none" viewBox="0 0 66 66"><rect width="66" height="66" fill="#fff" rx="33"/><path fill="#4141e7" d="M32.17 8c2.72.05 5.232.641 7.448 1.668q.492.23.965.486a8 8 0 0 0-3.008 4.559 11.6 11.6 0 0 0-5.418-1.342c-.1 0-.199-.003-.298 0a11.6 11.6 0 0 0-8.067 3.585 11.564 11.564 0 0 0 .326 16.298 11.6 11.6 0 0 0 8.204 3.261c6.243-.086 11.339-5.174 11.426-11.407q.006-.364-.012-.727a8.03 8.03 0 0 0 5.53-.865q.072.8.072 1.623c0 2.976-1.13 6.328-2.095 8.216-3.165 6.2-14.882 23.536-14.882 23.536a.223.223 0 0 1-.383 0S20.26 39.555 17.095 33.355C16.13 31.467 15 28.115 15 25.139 15 15.674 22.67 8 32.168 8z"/><path fill="#4141e7" fill-rule="evenodd" d="M45.346 9.91A6.653 6.653 0 0 1 52 16.562a6.653 6.653 0 0 1-6.654 6.65 6.653 6.653 0 0 1-6.655-6.65 6.653 6.653 0 0 1 6.654-6.652m3.283 3.33a.7.7 0 0 0-.23.06.6.6 0 0 0-.182.128l-4.31 4.487-2.112-2.084a.6.6 0 0 0-.183-.131.756.756 0 0 0-.476-.049.7.7 0 0 0-.218.09.5.5 0 0 0-.157.153.41.41 0 0 0-.045.387.5.5 0 0 0 .119.174l2.567 2.582a.6.6 0 0 0 .215.136.7.7 0 0 0 .266.048.7.7 0 0 0 .283-.044.6.6 0 0 0 .228-.145l4.82-4.986a.5.5 0 0 0 .105-.177.4.4 0 0 0 .013-.196.44.44 0 0 0-.083-.185.679.679 0 0 0-.38-.234.8.8 0 0 0-.24-.014" clip-rule="evenodd"/></svg>