<svg xmlns="http://www.w3.org/2000/svg" width="106" height="42" fill="none" viewBox="0 0 106 42"><path fill="#4141e7" d="M14.898 0c2.36.042 4.54.55 6.462 1.43.964.441 1.863.977 2.688 1.594a7.23 7.23 0 0 0-2.84 3.783 10 10 0 0 0-2.44-1.435 10.2 10.2 0 0 0-3.882-.769q-.129-.001-.258 0a10.13 10.13 0 0 0-7 3.073 9.85 9.85 0 0 0-2.775 7.043 9.86 9.86 0 0 0 3.058 6.928 10.14 10.14 0 0 0 7.118 2.795c5.164-.071 9.422-4.035 9.876-9.032a7.41 7.41 0 0 0 4.81.596c-.25 2.172-1.044 4.382-1.738 5.726-2.747 5.315-12.912 20.173-12.914 20.175a.194.194 0 0 1-.332 0S4.564 27.047 1.817 21.732C.981 20.115 0 17.242 0 14.69 0 6.577 6.655 0 14.896 0z"/><path fill="#4141e7" fill-rule="evenodd" d="M28.167 2.966c3.357 0 6.078 2.687 6.078 6 0 3.315-2.721 6.002-6.078 6.002-3.356 0-6.078-2.687-6.078-6.001s2.722-6.001 6.078-6.001m3 3.004a.7.7 0 0 0-.21.055.6.6 0 0 0-.167.115l-3.936 4.048-1.93-1.88a.5.5 0 0 0-.166-.119.7.7 0 0 0-.435-.044.6.6 0 0 0-.2.082.5.5 0 0 0-.143.138.366.366 0 0 0-.041.35q.035.086.109.155l2.345 2.33c.052.053.12.095.195.123a.7.7 0 0 0 .243.044q.136.005.26-.04a.6.6 0 0 0 .207-.131l4.403-4.498a.4.4 0 0 0 .096-.16.36.36 0 0 0 .011-.177.4.4 0 0 0-.075-.167.624.624 0 0 0-.346-.21.7.7 0 0 0-.22-.014" clip-rule="evenodd"/><path fill="#4141e7" d="M35.339 29.316v-16.3H38.7v2.144h.08q.335-.745.876-1.284.552-.54 1.278-.825a4.4 4.4 0 0 1 1.611-.287q1.566 0 2.694.768 1.128.756 1.739 2.19.61 1.432.61 3.426v.012q0 1.995-.61 3.427-.6 1.433-1.716 2.2-1.117.77-2.67.769a4.5 4.5 0 0 1-1.624-.287 4 4 0 0 1-1.3-.802 4.2 4.2 0 0 1-.899-1.26H38.7v6.108zm6.101-6.534q.84 0 1.45-.436.61-.447.945-1.26.334-.814.334-1.926v-.012q0-1.122-.334-1.937-.334-.813-.956-1.238-.61-.435-1.439-.435-.817 0-1.439.447-.62.435-.967 1.25-.345.801-.345 1.925v.011q0 1.1.345 1.915.357.813.967 1.26.622.436 1.44.436M54.242 25.556q-2.05 0-3.04-.86t-.99-2.831v-6.327h-1.715v-2.522h1.715v-3.003h3.396v3.003h2.257v2.522h-2.257v5.96q0 .86.38 1.204.392.332 1.152.332a6 6 0 0 0 .402-.011q.173-.023.323-.046v2.453q-.277.045-.69.08-.404.046-.933.046M57.787 25.304V13.016h3.362v12.288zm1.681-13.87a1.74 1.74 0 0 1-1.278-.515 1.67 1.67 0 0 1-.518-1.227q0-.722.518-1.226a1.74 1.74 0 0 1 1.278-.516q.76 0 1.278.516.518.504.518 1.226 0 .711-.518 1.227a1.74 1.74 0 0 1-1.278.515M65.811 25.304l-3.28-12.288h3.384l1.865 9.113h.069l2.187-9.113h3.224l2.198 9.113h.07l1.876-9.113h3.316l-3.27 12.288h-3.58l-2.234-8.689h-.069l-2.221 8.689zM85.29 25.499q-1.232 0-2.165-.47a3.7 3.7 0 0 1-1.462-1.319q-.518-.848-.518-1.925v-.023q0-1.123.565-1.914.564-.803 1.634-1.261 1.07-.459 2.602-.562l4.812-.298v2.086l-4.305.275q-.967.058-1.474.459a1.25 1.25 0 0 0-.507 1.043v.023q0 .675.518 1.066.519.378 1.393.378.749 0 1.336-.287.599-.297.932-.802.346-.516.346-1.157v-3.726q0-.813-.518-1.283-.519-.482-1.508-.482-.945 0-1.497.39t-.68.985l-.022.104h-3.074l.012-.138a3.83 3.83 0 0 1 .748-2.017q.667-.883 1.842-1.376 1.186-.504 2.809-.504 1.6 0 2.774.516 1.175.504 1.819 1.433.657.928.656 2.166v8.425h-3.361V23.47h-.07q-.345.63-.897 1.089a4.2 4.2 0 0 1-1.232.699q-.69.24-1.508.24M96.399 29.35q-.495 0-.956-.046a9 9 0 0 1-.76-.103v-2.487q.184.034.473.068.287.046.656.046.759 0 1.197-.252t.656-.871l.15-.401-4.363-12.288h3.695l2.786 10.27-.449-.665h.633l-.449.665 2.786-10.27H106l-4.236 12.506q-.485 1.444-1.221 2.28a4 4 0 0 1-1.75 1.192q-1.024.356-2.394.356"/></svg>