<svg xmlns="http://www.w3.org/2000/svg">
    <defs>
        <symbol id="apple" viewBox="0 0 20 20" fill="none"><path fill="#fff" fill-rule="evenodd" d="M15.917 15.967c.491-.75.675-1.134 1.05-1.975-2.767-1.05-3.209-4.992-.475-6.5-.834-1.05-2.009-1.659-3.117-1.659-.8 0-1.35.209-1.842.4-.416.159-.791.3-1.258.3-.5 0-.942-.158-1.408-.325-.509-.183-1.042-.375-1.709-.375-1.241 0-2.566.759-3.408 2.059-1.183 1.833-.975 5.266.933 8.2.684 1.05 1.6 2.225 2.792 2.241.5.009.825-.141 1.183-.3.409-.183.85-.383 1.625-.383.775-.008 1.209.2 1.617.383.35.159.667.309 1.158.3 1.209-.016 2.175-1.316 2.859-2.366M13.2 1.667c.134.916-.241 1.825-.733 2.458-.525.683-1.442 1.217-2.325 1.183-.158-.883.25-1.791.75-2.4.558-.666 1.5-1.183 2.308-1.241" clip-rule="evenodd"/></symbol>
        <symbol id="apple-blue" viewBox="0 0 20 20" fill="none"><path fill="#4141E7" fill-rule="evenodd" d="M15.917 15.967c.491-.75.675-1.134 1.05-1.975-2.767-1.05-3.209-4.992-.475-6.5-.834-1.05-2.009-1.659-3.117-1.659-.8 0-1.35.209-1.842.4-.416.159-.791.3-1.258.3-.5 0-.942-.158-1.408-.325-.509-.183-1.042-.375-1.709-.375-1.241 0-2.566.759-3.408 2.059-1.183 1.833-.975 5.266.933 8.2.684 1.05 1.6 2.225 2.792 2.241.5.009.825-.141 1.183-.3.409-.183.85-.383 1.625-.383.775-.008 1.209.2 1.617.383.35.159.667.309 1.158.3 1.209-.016 2.175-1.316 2.859-2.366M13.2 1.667c.134.916-.241 1.825-.733 2.458-.525.683-1.442 1.217-2.325 1.183-.158-.883.25-1.791.75-2.4.558-.666 1.5-1.183 2.308-1.241" clip-rule="evenodd"/></symbol>
        <symbol id="arrow-right" viewBox="0 0 21 20" fill="none"><path stroke="#394351" stroke-linecap="round" stroke-linejoin="round" stroke-miterlimit="10" stroke-width="1.5" d="M12.525 4.942 17.584 10l-5.059 5.058M3.416 10h14.025"/></symbol>
        <symbol id="customers" viewBox="0 0 49 48" fill="none"><path fill="#4141e7" d="M35.56 15.54q-.21-.03-.42 0c-3.1-.1-5.56-2.64-5.56-5.76C29.58 6.6 32.16 4 35.36 4c3.18 0 5.78 2.58 5.78 5.78-.02 3.12-2.48 5.66-5.58 5.76M42.08 29.4c-2.24 1.5-5.38 2.06-8.28 1.68.76-1.64 1.16-3.46 1.18-5.38 0-2-.44-3.9-1.28-5.56 2.96-.4 6.1.16 8.36 1.66 3.16 2.08 3.16 5.5.02 7.6M13.38 15.54q.21-.03.42 0c3.1-.1 5.56-2.64 5.56-5.76C19.36 6.6 16.78 4 13.58 4 10.4 4 7.8 6.58 7.8 9.78c.02 3.12 2.48 5.66 5.58 5.76M13.6 25.7c0 1.94.42 3.78 1.18 5.44-2.82.3-5.76-.3-7.92-1.72-3.16-2.1-3.16-5.52 0-7.62 2.14-1.44 5.16-2.02 8-1.7-.82 1.68-1.26 3.58-1.26 5.6" opacity=".4"/><path fill="#4141e7" d="M24.74 31.74c-.16-.02-.34-.02-.52 0-3.68-.12-6.62-3.14-6.62-6.86 0-3.8 3.06-6.88 6.88-6.88 3.8 0 6.88 3.08 6.88 6.88 0 3.72-2.92 6.74-6.62 6.86M18.24 35.88c-3.02 2.02-3.02 5.34 0 7.34 3.44 2.3 9.08 2.3 12.52 0 3.02-2.02 3.02-5.34 0-7.34-3.42-2.3-9.06-2.3-12.52 0"/></symbol>
        <symbol id="drive" viewBox="0 0 49 48" fill="none"><path fill="#4141e7" d="M18.26 9.2c-1.6-6.92-12.02-6.94-13.62 0-.94 4.06 1.64 7.5 3.88 9.64a4.294 4.294 0 0 0 5.86 0c2.24-2.14 4.8-5.58 3.88-9.64m-6.74 3.2c-1.1 0-2-.9-2-2s.88-2 1.98-2h.02c1.12 0 2 .9 2 2s-.88 2-2 2" opacity=".4"/><path fill="#4141e7" d="M13.52 10.4c0 1.1-.88 2-2 2-1.1 0-2-.9-2-2s.88-2 1.98-2h.02c1.12 0 2 .9 2 2"/><path fill="#4141e7" d="M44.32 33.2c-1.6-6.92-12.06-6.94-13.68 0-.94 4.06 1.64 7.5 3.9 9.64 1.64 1.54 4.24 1.54 5.88 0 2.26-2.14 4.84-5.58 3.9-9.64m-6.76 3.2c-1.1 0-2-.9-2-2s.88-2 1.98-2h.02c1.1 0 2 .9 2 2s-.9 2-2 2" opacity=".4"/><path fill="#4141e7" d="M39.56 34.4c0 1.1-.9 2-2 2s-2-.9-2-2 .88-2 1.98-2h.02c1.1 0 2 .9 2 2M24.5 39.5h-5.36c-2.32 0-4.34-1.4-5.14-3.56-.82-2.16-.22-4.54 1.52-6.08L31.5 15.88c.96-.84.98-1.98.7-2.76-.3-.78-1.06-1.62-2.34-1.62H24.5c-.82 0-1.5-.68-1.5-1.5s.68-1.5 1.5-1.5h5.36c2.32 0 4.34 1.4 5.14 3.56.82 2.16.22 4.54-1.52 6.08L17.5 32.12c-.96.84-.98 1.98-.7 2.76.3.78 1.06 1.62 2.34 1.62h5.36c.82 0 1.5.68 1.5 1.5s-.68 1.5-1.5 1.5"/></symbol>
        <symbol id="clock" viewBox="0 0 49 48" fill="none"><path fill="#b2b2ff" d="M24.5 44c11.046 0 20-8.954 20-20s-8.954-20-20-20-20 8.954-20 20 8.954 20 20 20" opacity=".4"/><path fill="#4141e7" d="M31.92 31.86c-.26 0-.52-.06-.76-.22l-6.2-3.7c-1.54-.92-2.68-2.94-2.68-4.72v-8.2c0-.82.68-1.5 1.5-1.5s1.5.68 1.5 1.5v8.2c0 .72.6 1.78 1.22 2.14l6.2 3.7c.72.42.94 1.34.52 2.06-.3.48-.8.74-1.3.74"/></symbol>
        <symbol id="import" viewBox="0 0 25 26" fill="none"><circle cx="12.5" cy="12.723" r="12" stroke="#4141e7"/><path fill="#4141e7" d="M19.25 15.425a.75.75 0 0 1 .75.75V18.6a.75.75 0 0 1-.75.75H5.75A.75.75 0 0 1 5 18.6v-2.424a.75.75 0 0 1 1.5 0v1.605h12v-1.605a.75.75 0 0 1 .75-.75M12.477 5.223c.343 0 .621.278.622.621v7.607l1.833-1.917a.6.6 0 0 1 .878 0 .67.67 0 0 1 0 .919l-2.617 2.738c-.381.399-1 .399-1.381 0l-.168-.175-.002.003-2.454-2.566a.67.67 0 0 1 0-.92.603.603 0 0 1 .88 0l1.787 1.87V5.845c0-.343.28-.62.622-.62"/></symbol>
        <symbol id="txt" viewBox="0 0 62 62" fill="none"><g clip-path="url(#a)"><path fill="#fff" stroke="#d0d5dd" stroke-width="2.31" d="M13.858 1.155h26.247L52.738 12.76v42.673a5.005 5.005 0 0 1-5.005 5.004H13.858a5.004 5.004 0 0 1-5.004-5.004V6.159a5.004 5.004 0 0 1 5.004-5.004Z"/><mask id="b" fill="#fff"><path d="M38.494 1.54h13.088v13.088H40.034c-.85 0-1.54-.69-1.54-1.54z"/></mask><path fill="#d0d5dd" d="M38.494 1.54h13.088zm13.088 14.628H40.034a3.08 3.08 0 0 1-3.08-3.08h14.628zm-11.548 0a3.08 3.08 0 0 1-3.08-3.08V1.54h3.08v14.628M51.582 1.54v13.088z" mask="url(#b)"/><rect width="36.159" height="20.239" x="1.539" y="30.796" fill="#1b1b96" rx="3.08"/><path fill="#fff" d="M13.749 35.606v2.11h-2.864v8.699H8.252v-8.7H5.388v-2.11zm7.942 10.809-2.201-3.31-1.94 3.31h-2.988l3.465-5.497-3.542-5.312h3.064l2.171 3.264 1.91-3.264h2.987l-3.434 5.45 3.573 5.359zm12.162-10.81v2.11H30.99v8.7h-2.633v-8.7h-2.864v-2.11z"/></g><defs><clipPath id="a"><path fill="#fff" d="M0 0h61.592v61.592H0z"/></clipPath></defs></symbol>
        <symbol id="xslx" viewBox="0 0 63 62" fill="none"><g clip-path="url(#a)"><path fill="#fff" stroke="#d0d5dd" stroke-width="2.31" d="M14.45 1.155h26.246L53.33 12.76v42.673a5.005 5.005 0 0 1-5.005 5.004H14.45a5.004 5.004 0 0 1-5.004-5.004V6.159a5.004 5.004 0 0 1 5.004-5.004Z"/><mask id="b" fill="#fff"><path d="M39.086 1.54h13.088v13.088H40.626c-.85 0-1.54-.69-1.54-1.54z"/></mask><path fill="#d0d5dd" d="M39.086 1.54h13.088zm13.088 14.628H40.626a3.08 3.08 0 0 1-3.08-3.08h14.628zm-11.548 0a3.08 3.08 0 0 1-3.08-3.08V1.54h3.08v14.628M52.174 1.54v13.088z" mask="url(#b)"/><rect width="45.159" height="20.239" x="2.131" y="30.796" fill="#1b1b96" rx="3.08"/><path fill="#fff" d="m12.874 46.415-2.202-3.31-1.94 3.31H5.745l3.464-5.497-3.541-5.312h3.064l2.171 3.264 1.91-3.264h2.986l-3.433 5.45 3.572 5.359zm7.019-2.032h3.45v2.032H17.26v-10.81h2.633zm8.616 2.14q-1.185 0-2.125-.385a3.5 3.5 0 0 1-1.509-1.14q-.554-.754-.585-1.816h2.802q.063.6.416.923.354.309.924.308.585 0 .924-.261.339-.278.339-.755a.87.87 0 0 0-.277-.662 2.1 2.1 0 0 0-.663-.431 10 10 0 0 0-1.108-.385q-1.047-.324-1.71-.647a3.16 3.16 0 0 1-1.139-.954q-.477-.631-.477-1.648 0-1.509 1.093-2.356 1.093-.862 2.849-.862 1.785 0 2.88.862 1.092.847 1.17 2.371h-2.85q-.03-.523-.384-.816-.355-.308-.909-.308-.477 0-.77.262-.292.246-.292.724 0 .523.493.816.492.292 1.54.631 1.046.354 1.693.678.662.322 1.14.939.477.616.477 1.586 0 .924-.477 1.678-.462.755-1.355 1.201-.894.447-2.11.447m12.183-.108-2.202-3.31-1.94 3.31h-2.987l3.465-5.497-3.542-5.312h3.064l2.172 3.264 1.909-3.264h2.987l-3.434 5.45 3.573 5.359z"/></g><defs><clipPath id="a"><path fill="#fff" d="M.592 0h61.592v61.592H.592z"/></clipPath></defs></symbol>
        <symbol id="analytics" viewBox="0 0 48 48" fill="none"><path fill="#4141e7" d="M44 44H4c-.82 0-1.5-.68-1.5-1.5S3.18 41 4 41h40c.82 0 1.5.68 1.5 1.5S44.82 44 44 44"/><path fill="#4141e7" d="M19.5 8v36h9V8c0-2.2-.9-4-3.6-4h-1.8c-2.7 0-3.6 1.8-3.6 4"/><path fill="#4141e7" d="M6 20v24h8V20c0-2.2-.8-4-3.2-4H9.2C6.8 16 6 17.8 6 20M34 30v14h8V30c0-2.2-.8-4-3.2-4h-1.6c-2.4 0-3.2 1.8-3.2 4" opacity=".3"/></symbol>
        <symbol id="exports" viewBox="0 0 48 48" fill="none"><path fill="#4141e7" d="M32.38 4H15.64C8.34 4 4 8.34 4 15.62v16.74c0 7.28 4.34 11.62 11.62 11.62h16.74c7.28 0 11.62-4.34 11.62-11.62V15.62C44 8.34 39.66 4 32.38 4" opacity=".2"/><path fill="#4141e7" d="M22.94 30.08c.14.14.3.24.48.32s.38.12.58.12.38-.04.58-.12c.18-.08.34-.18.48-.32l6-6c.58-.58.58-1.54 0-2.12s-1.54-.58-2.12 0L25.5 25.4V13.02c0-.82-.68-1.5-1.5-1.5s-1.5.68-1.5 1.5V25.4l-3.44-3.44c-.58-.58-1.54-.58-2.12 0s-.58 1.54 0 2.12zM37.42 32.56c-.26-.78-1.1-1.2-1.9-.94a36.67 36.67 0 0 1-23.06 0c-.78-.26-1.64.16-1.9.94s.16 1.64.94 1.9c4.02 1.34 8.24 2.02 12.48 2.02s8.46-.68 12.48-2.02c.8-.28 1.22-1.12.96-1.9"/></symbol>
        <symbol id="control" viewBox="0 0 48 48" fill="none"><path fill="#4141e7" d="M38.6 15.84v10.3c0 6.16-3.52 8.8-8.8 8.8H12.22c-.9 0-1.76-.08-2.56-.26-.5-.08-.98-.22-1.42-.38-3-1.12-4.82-3.72-4.82-8.16v-10.3c0-6.16 3.52-8.8 8.8-8.8H29.8c4.48 0 7.7 1.9 8.56 6.24.14.8.24 1.62.24 2.56" opacity=".2"/><path fill="#4141e7" d="M44.6 21.84v10.3c0 6.16-3.52 8.8-8.8 8.8H18.22c-1.48 0-2.82-.2-3.98-.64-2.38-.88-4-2.7-4.58-5.62.8.18 1.66.26 2.56.26H29.8c5.28 0 8.8-2.64 8.8-8.8v-10.3c0-.94-.08-1.78-.24-2.56 3.8.8 6.24 3.48 6.24 8.56"/><path fill="#4141e7" d="M21 26.28a5.28 5.28 0 1 0 0-10.56 5.28 5.28 0 0 0 0 10.56M9.56 16.5c-.82 0-1.5.68-1.5 1.5v6c0 .82.68 1.5 1.5 1.5s1.5-.68 1.5-1.5v-6c0-.82-.66-1.5-1.5-1.5M32.42 16.5c-.82 0-1.5.68-1.5 1.5v6c0 .82.68 1.5 1.5 1.5s1.5-.68 1.5-1.5v-6c0-.82-.66-1.5-1.5-1.5"/></symbol>
        <symbol id="time" viewBox="0 0 20 20" fill="none"><path stroke="#8c94a0" stroke-linecap="round" stroke-linejoin="round" stroke-width="1.5" d="M18.333 10c0 4.6-3.734 8.333-8.334 8.333A8.336 8.336 0 0 1 1.666 10c0-4.6 3.733-8.333 8.333-8.333S18.333 5.4 18.333 10"/><path stroke="#8c94a0" stroke-linecap="round" stroke-linejoin="round" stroke-width="1.5" d="m13.091 12.65-2.583-1.542c-.45-.266-.817-.908-.817-1.433V6.258"/></symbol>
        <symbol id="linkedin" viewBox="0 0 20 20" fill="none"><g clip-path="url(#a)"><path fill="#20242a" d="M18.524 0H1.476A1.476 1.476 0 0 0 0 1.476v17.048A1.476 1.476 0 0 0 1.476 20h17.048A1.476 1.476 0 0 0 20 18.524V1.476A1.476 1.476 0 0 0 18.524 0M5.96 17.038H2.954V7.486h3.007zM4.456 6.163a1.726 1.726 0 1 1 1.736-1.726 1.7 1.7 0 0 1-1.736 1.725m12.588 10.883H14.04v-5.218c0-1.54-.654-2.014-1.499-2.014-.891 0-1.766.672-1.766 2.053v5.179H7.767V7.493h2.891v1.324h.04c.29-.588 1.306-1.592 2.858-1.592 1.677 0 3.49.996 3.49 3.912z"/></g><defs><clipPath id="a"><path fill="#fff" d="M0 0h20v20H0z"/></clipPath></defs></symbol>
        <symbol id="facebook" viewBox="0 0 20 20" fill="none"><g clip-path="url(#a)"><path fill="#20242a" d="M20 10c0-5.523-4.477-10-10-10S0 4.477 0 10c0 4.69 3.229 8.625 7.584 9.706v-6.65H5.522V10h2.062V8.683c0-3.403 1.54-4.981 4.882-4.981.634 0 1.727.124 2.174.248v2.77a13 13 0 0 0-1.155-.037c-1.64 0-2.274.621-2.274 2.236V10h3.267l-.561 3.056H11.21v6.87C16.163 19.33 20 15.114 20 10"/><path fill="#fff" d="M13.916 13.056 14.477 10h-3.266V8.92c0-1.616.633-2.237 2.273-2.237.51 0 .92.013 1.155.038V3.95c-.447-.125-1.54-.25-2.174-.25-3.341 0-4.881 1.579-4.881 4.982V10H5.52v3.056h2.063v6.65a10 10 0 0 0 3.627.22v-6.87"/></g><defs><clipPath id="a"><path fill="#fff" d="M0 0h20v20H0z"/></clipPath></defs></symbol>
        <symbol id="x" viewBox="0 0 20 20" fill="none"><g clip-path="url(#a)"><path fill="#20242a" d="M.049.417 7.77 10.74 0 19.136h1.749l6.803-7.35 5.497 7.35H20L11.844 8.23 19.077.417h-1.75l-6.265 6.768L6 .417zM2.62 1.705h2.734l12.073 16.142h-2.734z"/></g><defs><clipPath id="a"><path fill="#fff" d="M0 0h20v20H0z"/></clipPath></defs></symbol>
        <symbol id="email" viewBox="0 0 24 24" fill="none"><path stroke="#20242a" stroke-linecap="round" stroke-linejoin="round" stroke-miterlimit="10" stroke-width="1.5" d="M17 20.5H7c-3 0-5-1.5-5-5v-7c0-3.5 2-5 5-5h10c3 0 5 1.5 5 5v7c0 3.5-2 5-5 5"/><path stroke="#20242a" stroke-linecap="round" stroke-linejoin="round" stroke-miterlimit="10" stroke-width="1.5" d="m17 9-3.13 2.5c-1.03.82-2.72.82-3.75 0L7 9"/></symbol>
        <symbol id="url" viewBox="0 0 24 24" fill="none"><path stroke="#20242a" stroke-linecap="round" stroke-linejoin="round" stroke-width="1.5" d="M14.99 17.5h1.51c3.02 0 5.5-2.47 5.5-5.5 0-3.02-2.47-5.5-5.5-5.5h-1.51M9 6.5H7.5A5.51 5.51 0 0 0 2 12c0 3.02 2.47 5.5 5.5 5.5H9M8 12h8"/></symbol>
        <symbol id="subscription" viewBox="0 0 40 40" fill="none"><path fill="#4141E7" d="M35.417 36.667H4.584a1.26 1.26 0 0 1-1.25-1.25c0-.684.567-1.25 1.25-1.25h30.833c.684 0 1.25.566 1.25 1.25 0 .683-.566 1.25-1.25 1.25Z"/><path fill="#4141E7" d="m34.317 22.833-12.05 12.05c-2.366 2.367-6.183 2.367-8.533.017l-7.683-7.683 20.6-20.6 7.683 7.683c2.35 2.35 2.35 6.167-.017 8.533Z" opacity=".4"/><path fill="#4141E7" d="m26.65 6.617-20.617 20.6L4.516 25.7c-2.35-2.35-2.35-6.167.017-8.533l12.05-12.05C18.95 2.75 22.766 2.75 25.116 5.1l1.534 1.517ZM21.483 29.333l-2.25 2.25a1.187 1.187 0 0 1-1.684 0 1.187 1.187 0 0 1 0-1.683l2.25-2.25a1.187 1.187 0 0 1 1.684 0 1.187 1.187 0 0 1 0 1.683ZM28.784 22.033l-4.483 4.484a1.187 1.187 0 0 1-1.683 0 1.187 1.187 0 0 1 0-1.684L27.1 20.35a1.187 1.187 0 0 1 1.683 0c.45.467.45 1.217 0 1.683Z"/></symbol>
        <symbol id="application" viewBox="0 0 40 40" fill="none"><path fill="#4141E7" d="M27.4 3.333H13.267C8.667 3.333 7 5 7 9.683v20.634c0 4.683 1.667 6.35 6.267 6.35h14.116c4.617 0 6.284-1.667 6.284-6.35V9.683C33.667 5 32 3.333 27.4 3.333Z" opacity=".4"/><path fill="#4141E7" d="M23.667 10.417H17a1.26 1.26 0 0 1-1.25-1.25c0-.684.567-1.25 1.25-1.25h6.667c.683 0 1.25.566 1.25 1.25a1.26 1.26 0 0 1-1.25 1.25ZM20.335 32.167a2.917 2.917 0 1 0 0-5.834 2.917 2.917 0 0 0 0 5.834Z"/></symbol>
        <symbol id="account" viewBox="0 0 40 40" fill="none"><path fill="#4141E7" d="M37.333 13.017v13.966c0 4.684-2.15 7.9-5.933 9.117-1.1.383-2.367.567-3.75.567H13.683c-1.383 0-2.65-.184-3.75-.567C6.15 34.883 4 31.667 4 26.983V13.017c0-6.067 3.617-9.684 9.683-9.684H27.65c6.067 0 9.683 3.617 9.683 9.684Z" opacity=".4"/><path fill="#4141E7" d="M31.4 36.1c-1.1.383-2.366.567-3.75.567H13.684c-1.384 0-2.65-.184-3.75-.567.583-4.4 5.183-7.817 10.733-7.817 5.55 0 10.15 3.417 10.733 7.817ZM26.633 19.3c0 3.3-2.667 5.983-5.967 5.983S14.699 22.6 14.699 19.3a5.96 5.96 0 0 1 5.967-5.967 5.96 5.96 0 0 1 5.967 5.967Z"/></symbol>
        <symbol id="day" viewBox="0 0 48 48" fill="none"><path fill="#4141E7" d="M24 44c11.046 0 20-8.954 20-20S35.046 4 24 4 4 12.954 4 24s8.954 20 20 20Z" opacity=".4"/><path fill="#4141E7" d="M31.42 31.86c-.26 0-.52-.06-.76-.22l-6.2-3.7c-1.54-.92-2.68-2.94-2.68-4.72v-8.2c0-.82.68-1.5 1.5-1.5s1.5.68 1.5 1.5v8.2c0 .72.6 1.78 1.22 2.14l6.2 3.7c.72.42.94 1.34.52 2.06-.3.48-.8.74-1.3.74Z"/></symbol>
        <symbol id="trust" viewBox="0 0 48 48" fill="none"><path fill="#4141E7" d="M40.82 13.92v5.68L14.8 38.68l-5.26-3.94c-1.3-.98-2.36-3.08-2.36-4.7V13.92c0-2.24 1.72-4.72 3.82-5.5l10.94-4.1c1.14-.42 2.98-.42 4.12 0L37 8.42c2.1.78 3.82 3.26 3.82 5.5Z" opacity=".4"/><path fill="#4141E7" d="M40.82 22.34v7.7c0 1.62-1.06 3.72-2.36 4.7l-10.94 8.18C26.56 43.64 25.28 44 24 44c-1.28 0-2.56-.36-3.52-1.08l-3.84-2.86 24.18-17.72Z"/></symbol>
        <symbol id="date" fill="none" viewBox="0 0 21 20"><path stroke="#8c94a0" stroke-linecap="round" stroke-linejoin="round" stroke-miterlimit="10" stroke-width="1.5" d="M7.168 1.667v2.5M13.832 1.667v2.5M13.833 2.917C16.608 3.067 18 4.125 18 8.042v5.15c0 3.433-.833 5.15-5 5.15H8c-4.167 0-5-1.717-5-5.15v-5.15c0-3.917 1.392-4.967 4.167-5.125zM17.79 14.667H3.207"/><path fill="#8c94a0" d="M10.501 6.875c-1.025 0-1.891.558-1.891 1.642 0 .516.241.908.608 1.158-.508.3-.8.783-.8 1.35 0 1.033.792 1.675 2.083 1.675 1.284 0 2.084-.642 2.084-1.675 0-.567-.292-1.058-.809-1.35.375-.258.609-.642.609-1.158 0-1.084-.859-1.642-1.884-1.642m0 2.367c-.433 0-.75-.259-.75-.667 0-.417.317-.658.75-.658.434 0 .75.241.75.658 0 .408-.316.667-.75.667m0 2.425c-.55 0-.95-.275-.95-.775s.4-.767.95-.767.95.275.95.767c0 .5-.4.775-.95.775"/></symbol>
        <symbol id="thumb-up" viewBox="0 0 32 32" fill="none"><path fill="#4141e7" d="M11.188 24.653V11.107c0-.534.16-1.054.453-1.494L15.28 4.2c.573-.867 2-1.48 3.213-1.027 1.307.44 2.174 1.907 1.893 3.214l-.693 4.36c-.053.4.053.76.28 1.04.227.253.56.413.92.413h5.48c1.053 0 1.96.427 2.494 1.173.506.72.6 1.654.266 2.6l-3.28 9.987c-.413 1.653-2.213 3-4 3h-5.2c-.893 0-2.146-.307-2.72-.88l-1.707-1.32a2.65 2.65 0 0 1-1.04-2.107M6.948 8.507H5.575c-2.067 0-2.907.8-2.907 2.773v13.414c0 1.973.84 2.773 2.907 2.773h1.373c2.067 0 2.907-.8 2.907-2.773V11.28c0-1.973-.84-2.773-2.907-2.773"/></symbol>
        <symbol id="thumb-down" viewBox="0 0 32 32" fill="none"><path stroke="#8c94a0" stroke-miterlimit="10" stroke-width="1.5" d="m22.028 7.533-4.134-3.2c-.533-.533-1.733-.8-2.533-.8h-5.067c-1.6 0-3.333 1.2-3.733 2.8l-3.2 9.734c-.667 1.866.533 3.466 2.533 3.466h5.334c.8 0 1.466.667 1.333 1.6l-.667 4.267c-.266 1.2.534 2.533 1.734 2.933 1.066.4 2.4-.133 2.933-.933l5.467-8.133"/><path stroke="#8c94a0" stroke-linecap="round" stroke-linejoin="round" stroke-width="1.5" d="M28.827 7.533V20.6c0 1.867-.8 2.533-2.667 2.533h-1.333c-1.867 0-2.667-.666-2.667-2.533V7.533c0-1.866.8-2.533 2.667-2.533h1.333c1.867 0 2.667.667 2.667 2.533"/></symbol>
    </defs>
</svg>